<?xml version="1.0" standalone="no"?>
 <!DOCTYPE svg PUBLIC "-//W3C//DTD SVG 1.1//EN" 
 "http://www.w3.org/Graphics/SVG/1.1/DTD/svg11.dtd"> 
<svg xmlns="http://www.w3.org/2000/svg" version="1.1" 
    width="41.9989cm" height="29.7002cm" viewBox="0 0 165350 116930 ">
<title>SVG Picture created as avr_programmer-B_Cu.svg date 2014/10/18 00:54:29 </title>
  <desc>Picture generated by PCBNEW </desc>
<g style="fill:#000000; fill-opacity:1;stroke:#000000; stroke-opacity:1;
stroke-linecap:round; stroke-linejoin:round; "
 transform="translate(0 0) scale(1 1)">
</g>
<g style="fill:#000000; fill-opacity:0.0; 
stroke:#000000; stroke-width:157.48; stroke-opacity:1; 
stroke-linecap:round; stroke-linejoin:round;">
<path d="M100667 65293
L100517 65818
L100367 65443
L100217 65818
L100067 65293
" />
<path d="M99842 65293
L99692 65818
L99542 65443
L99392 65818
L99242 65293
" />
<path d="M99017 65293
L98867 65818
L98717 65443
L98567 65818
L98417 65293
" />
<path d="M98117 65743
L98080 65781
L98117 65818
L98155 65781
L98117 65743
L98117 65818
" />
<path d="M97817 65293
L97630 65818
L97442 65293
" />
<path d="M97030 65818
L97105 65781
L97142 65743
L97180 65668
L97180 65443
L97142 65368
L97105 65331
L97030 65293
L96917 65293
L96842 65331
L96805 65368
L96767 65443
L96767 65668
L96805 65743
L96842 65781
L96917 65818
L97030 65818
" />
<path d="M96430 65818
L96430 65293
" />
<path d="M96430 65443
L96392 65368
L96355 65331
L96280 65293
L96205 65293
" />
<path d="M95830 65818
L95905 65781
L95943 65743
L95980 65668
L95980 65443
L95943 65368
L95905 65331
L95830 65293
L95718 65293
L95643 65331
L95605 65368
L95568 65443
L95568 65668
L95605 65743
L95643 65781
L95718 65818
L95830 65818
" />
<path d="M95230 65818
L95230 65031
" />
<path d="M95230 65331
L95155 65293
L95005 65293
L94930 65331
L94893 65368
L94855 65443
L94855 65668
L94893 65743
L94930 65781
L95005 65818
L95155 65818
L95230 65781
" />
<path d="M94405 65818
L94480 65781
L94518 65743
L94555 65668
L94555 65443
L94518 65368
L94480 65331
L94405 65293
L94293 65293
L94218 65331
L94180 65368
L94143 65443
L94143 65668
L94180 65743
L94218 65781
L94293 65818
L94405 65818
" />
<path d="M93918 65293
L93618 65293
" />
<path d="M93805 65031
L93805 65706
L93768 65781
L93693 65818
L93618 65818
" />
<path d="M93355 65818
L93355 65293
" />
<path d="M93355 65031
L93393 65068
L93355 65106
L93318 65068
L93355 65031
L93355 65106
" />
<path d="M92643 65781
L92718 65818
L92868 65818
L92943 65781
L92980 65743
L93018 65668
L93018 65443
L92980 65368
L92943 65331
L92868 65293
L92718 65293
L92643 65331
" />
<path d="M92343 65781
L92268 65818
L92118 65818
L92043 65781
L92005 65706
L92005 65668
L92043 65593
L92118 65556
L92230 65556
L92305 65518
L92343 65443
L92343 65406
L92305 65331
L92230 65293
L92118 65293
L92043 65331
" />
<path d="M91668 65743
L91631 65781
L91668 65818
L91706 65781
L91668 65743
L91668 65818
" />
<path d="M90956 65781
L91031 65818
L91181 65818
L91256 65781
L91293 65743
L91331 65668
L91331 65443
L91293 65368
L91256 65331
L91181 65293
L91031 65293
L90956 65331
" />
<path d="M90506 65818
L90581 65781
L90618 65743
L90656 65668
L90656 65443
L90618 65368
L90581 65331
L90506 65293
L90393 65293
L90318 65331
L90281 65368
L90243 65443
L90243 65668
L90281 65743
L90318 65781
L90393 65818
L90506 65818
" />
<path d="M89906 65818
L89906 65293
" />
<path d="M89906 65368
L89868 65331
L89793 65293
L89681 65293
L89606 65331
L89568 65406
L89568 65818
" />
<path d="M89568 65406
L89531 65331
L89456 65293
L89343 65293
L89268 65331
L89231 65406
L89231 65818
" />
<path d="M88256 65518
L87656 65518
" />
<path d="M86756 65293
L86606 65818
L86456 65443
L86306 65818
L86156 65293
" />
<path d="M85931 65293
L85781 65818
L85631 65443
L85481 65818
L85331 65293
" />
<path d="M85106 65293
L84956 65818
L84806 65443
L84656 65818
L84506 65293
" />
<path d="M84206 65743
L84169 65781
L84206 65818
L84244 65781
L84206 65743
L84206 65818
" />
<path d="M83832 65293
L83832 65968
L83869 66043
L83944 66081
L83982 66081
" />
<path d="M83832 65031
L83869 65068
L83832 65106
L83794 65068
L83832 65031
L83832 65106
" />
<path d="M83119 65818
L83119 65031
" />
<path d="M83119 65781
L83194 65818
L83344 65818
L83419 65781
L83457 65743
L83494 65668
L83494 65443
L83457 65368
L83419 65331
L83344 65293
L83194 65293
L83119 65331
" />
<path d="M82744 65818
L82744 65031
" />
<path d="M82407 65818
L82407 65406
L82444 65331
L82519 65293
L82632 65293
L82707 65331
L82744 65368
" />
<path d="M82032 65293
L82032 66081
" />
<path d="M82032 65331
L81957 65293
L81807 65293
L81732 65331
L81694 65368
L81657 65443
L81657 65668
L81694 65743
L81732 65781
L81807 65818
L81957 65818
L82032 65781
" />
<path d="M81319 65743
L81282 65781
L81319 65818
L81357 65781
L81319 65743
L81319 65818
" />
<path d="M80832 65818
L80907 65781
L80944 65743
L80982 65668
L80982 65443
L80944 65368
L80907 65331
L80832 65293
L80719 65293
L80644 65331
L80607 65368
L80569 65443
L80569 65668
L80607 65743
L80644 65781
L80719 65818
L80832 65818
" />
<path d="M80232 65818
L80232 65293
" />
<path d="M80232 65443
L80194 65368
L80157 65331
L80082 65293
L80007 65293
" />
<path d="M79407 65293
L79407 65931
L79445 66006
L79482 66043
L79557 66081
L79670 66081
L79745 66043
" />
<path d="M79407 65781
L79482 65818
L79632 65818
L79707 65781
L79745 65743
L79782 65668
L79782 65443
L79745 65368
L79707 65331
L79632 65293
L79482 65293
L79407 65331
" />
<path d="M98173 39093
L97799 39093
" />
<path d="M98248 39318
L97986 38531
L97724 39318
" />
<path d="M97574 38531
L97124 38531
" />
<path d="M97349 39318
L97349 38531
" />
<path d="M96861 39318
L96861 38531
L96599 39093
L96336 38531
L96336 39318
" />
<path d="M95961 38906
L95699 38906
" />
<path d="M95586 39318
L95961 39318
L95961 38531
L95586 38531
" />
<path d="M94836 38568
L94911 38531
L95024 38531
L95136 38568
L95211 38643
L95249 38718
L95286 38868
L95286 38981
L95249 39131
L95211 39206
L95136 39281
L95024 39318
L94949 39318
L94836 39281
L94799 39243
L94799 38981
L94949 38981
" />
<path d="M94499 39093
L94124 39093
" />
<path d="M94574 39318
L94311 38531
L94049 39318
" />
<path d="M92774 39318
L93224 39318
" />
<path d="M92999 39318
L92999 38531
L93074 38643
L93149 38718
L93224 38756
" />
<path d="M92099 38531
L92249 38531
L92324 38568
L92362 38606
L92437 38718
L92474 38868
L92474 39168
L92437 39243
L92399 39281
L92324 39318
L92174 39318
L92099 39281
L92062 39243
L92024 39168
L92024 38981
L92062 38906
L92099 38868
L92174 38831
L92324 38831
L92399 38868
L92437 38906
L92474 38981
" />
<path d="M91574 38868
L91649 38831
L91687 38793
L91724 38718
L91724 38681
L91687 38606
L91649 38568
L91574 38531
L91424 38531
L91349 38568
L91312 38606
L91274 38681
L91274 38718
L91312 38793
L91349 38831
L91424 38868
L91574 38868
L91649 38906
L91687 38943
L91724 39018
L91724 39168
L91687 39243
L91649 39281
L91574 39318
L91424 39318
L91349 39281
L91312 39243
L91274 39168
L91274 39018
L91312 38943
L91349 38906
L91424 38868
" />
<path d="M90937 39018
L90337 39018
" />
<path d="M89962 39318
L89962 38531
L89662 38531
L89587 38568
L89550 38606
L89512 38681
L89512 38793
L89550 38868
L89587 38906
L89662 38943
L89962 38943
" />
<path d="M88575 38793
L88575 39581
" />
<path d="M88575 38831
L88500 38793
L88350 38793
L88275 38831
L88237 38868
L88200 38943
L88200 39168
L88237 39243
L88275 39281
L88350 39318
L88500 39318
L88575 39281
" />
<path d="M87862 39318
L87862 38793
" />
<path d="M87862 38943
L87825 38868
L87787 38831
L87712 38793
L87637 38793
" />
<path d="M87262 39318
L87337 39281
L87375 39243
L87412 39168
L87412 38943
L87375 38868
L87337 38831
L87262 38793
L87150 38793
L87075 38831
L87037 38868
L87000 38943
L87000 39168
L87037 39243
L87075 39281
L87150 39318
L87262 39318
" />
<path d="M86325 38793
L86325 39431
L86362 39506
L86400 39543
L86475 39581
L86587 39581
L86662 39543
" />
<path d="M86325 39281
L86400 39318
L86550 39318
L86625 39281
L86662 39243
L86700 39168
L86700 38943
L86662 38868
L86625 38831
L86550 38793
L86400 38793
L86325 38831
" />
<path d="M85950 39318
L85950 38793
" />
<path d="M85950 38943
L85913 38868
L85875 38831
L85800 38793
L85725 38793
" />
<path d="M85125 39318
L85125 38906
L85163 38831
L85238 38793
L85388 38793
L85463 38831
" />
<path d="M85125 39281
L85200 39318
L85388 39318
L85463 39281
L85500 39206
L85500 39131
L85463 39056
L85388 39018
L85200 39018
L85125 38981
" />
<path d="M84750 39318
L84750 38793
" />
<path d="M84750 38868
L84713 38831
L84638 38793
L84525 38793
L84450 38831
L84413 38906
L84413 39318
" />
<path d="M84413 38906
L84375 38831
L84300 38793
L84188 38793
L84113 38831
L84075 38906
L84075 39318
" />
<path d="M83700 39318
L83700 38793
" />
<path d="M83700 38868
L83663 38831
L83588 38793
L83475 38793
L83400 38831
L83363 38906
L83363 39318
" />
<path d="M83363 38906
L83325 38831
L83250 38793
L83138 38793
L83063 38831
L83025 38906
L83025 39318
" />
<path d="M82350 39281
L82425 39318
L82575 39318
L82650 39281
L82688 39206
L82688 38906
L82650 38831
L82575 38793
L82425 38793
L82350 38831
L82313 38906
L82313 38981
L82688 39056
" />
<path d="M81976 39318
L81976 38793
" />
<path d="M81976 38943
L81938 38868
L81901 38831
L81826 38793
L81751 38793
" />
</g>
<g style="fill:#000000; fill-opacity:0.0; 
stroke:#000000; stroke-width:39.3701; stroke-opacity:1; 
stroke-linecap:round; stroke-linejoin:round;">
<path d="M76500 66500
L76500 66000
" />
<path d="M75000 39000
L75000 66500
" />
<path d="M104000 37000
L76500 37000
" />
<path d="M105000 66500
L105000 39000
" />
<path d="M76500 67500
L104000 67500
" />
</g>
<g style="fill:#000000; fill-opacity:0.0; 
stroke:#000000; stroke-width:59.0551; stroke-opacity:1; 
stroke-linecap:round; stroke-linejoin:round;">
</g>
<g style="fill:#000000; fill-opacity:1.0; 
stroke:#000000; stroke-width:59.0551; stroke-opacity:1; 
stroke-linecap:round; stroke-linejoin:round;">
<circle cx="82000" cy="49500" r="403.543" /> 
<circle cx="82000" cy="52500" r="403.543" /> 
<polyline style="fill-rule:evenodd;"
points="90596,47403
90596,46596
91403,46596
91403,47403
90596,47403
" /> 
<circle cx="91000" cy="46000" r="403.543" /> 
<circle cx="92000" cy="47000" r="403.543" /> 
<circle cx="92000" cy="46000" r="403.543" /> 
<circle cx="93000" cy="47000" r="403.543" /> 
<circle cx="93000" cy="46000" r="403.543" /> 
<circle cx="82000" cy="46000" r="403.543" /> 
<circle cx="82000" cy="47000" r="403.543" /> 
</g>
<g style="fill:#000000; fill-opacity:1.0; 
stroke:#000000; stroke-width:787.402; stroke-opacity:1; 
stroke-linecap:round; stroke-linejoin:round;">
<path d="M83500 58943
L83500 59056
" />
<path d="M84500 58943
L84500 59056
" />
<path d="M85500 58943
L85500 59056
" />
<path d="M86500 58943
L86500 59056
" />
<path d="M87500 58943
L87500 59056
" />
<path d="M88500 58943
L88500 59056
" />
<path d="M89500 58943
L89500 59056
" />
<path d="M90500 58943
L90500 59056
" />
<path d="M91500 58943
L91500 59056
" />
<path d="M92500 58943
L92500 59056
" />
<path d="M93500 58943
L93500 59056
" />
<path d="M94500 58943
L94500 59056
" />
<path d="M95500 58943
L95500 59056
" />
</g>
<g style="fill:#000000; fill-opacity:1.0; 
stroke:#000000; stroke-width:59.0551; stroke-opacity:1; 
stroke-linecap:round; stroke-linejoin:round;">
<polyline style="fill-rule:evenodd;"
points="82219,59420
82219,58579
82780,58579
82780,59420
82219,59420
" /> 
</g>
<g style="fill:#000000; fill-opacity:1.0; 
stroke:#000000; stroke-width:787.402; stroke-opacity:1; 
stroke-linecap:round; stroke-linejoin:round;">
<path d="M95500 55943
L95500 56056
" />
<path d="M94500 55943
L94500 56056
" />
<path d="M93500 55943
L93500 56056
" />
<path d="M92500 55943
L92500 56056
" />
<path d="M91500 55943
L91500 56056
" />
<path d="M90500 55943
L90500 56056
" />
<path d="M89500 55943
L89500 56056
" />
<path d="M88500 55943
L88500 56056
" />
<path d="M87500 55943
L87500 56056
" />
<path d="M86500 55943
L86500 56056
" />
<path d="M85500 55943
L85500 56056
" />
<path d="M84500 55943
L84500 56056
" />
<path d="M83500 55943
L83500 56056
" />
<path d="M82500 55943
L82500 56056
" />
</g>
<g style="fill:#000000; fill-opacity:1.0; 
stroke:#000000; stroke-width:59.0551; stroke-opacity:1; 
stroke-linecap:round; stroke-linejoin:round;">
<circle cx="91500" cy="43000" r="403.543" /> 
<circle cx="92500" cy="43000" r="403.543" /> 
<circle cx="77000" cy="39000" r="770.472" /> 
<circle cx="103000" cy="39000" r="770.472" /> 
<circle cx="103000" cy="65500" r="770.472" /> 
<circle cx="77000" cy="65500" r="770.472" /> 
<circle cx="78000" cy="46000" r="403.543" /> 
<circle cx="81000" cy="61000" r="403.543" /> 
<circle cx="84000" cy="61000" r="403.543" /> 
<circle cx="82000" cy="46000" r="403.543" /> 
<circle cx="90500" cy="53500" r="403.543" /> 
<circle cx="92500" cy="53500" r="403.543" /> 
<circle cx="92000" cy="44500" r="403.543" /> 
<circle cx="94000" cy="44500" r="403.543" /> 
<circle cx="95000" cy="45500" r="403.543" /> 
<circle cx="95000" cy="48500" r="403.543" /> 
</g>
<g style="fill:#000000; fill-opacity:1.0; 
stroke:#000000; stroke-width:472.441; stroke-opacity:1; 
stroke-linecap:round; stroke-linejoin:round;">
<path d="M88500 56000
L88500 57000
" />
<path d="M89500 58000
L89500 59000
" />
<path d="M88500 57000
L89500 58000
" />
<path d="M92500 43000
L92500 41500
" />
<path d="M80000 50500
L82000 52500
" />
<path d="M80000 42000
L80000 50500
" />
<path d="M81000 41000
L80000 42000
" />
<path d="M92000 41000
L81000 41000
" />
<path d="M92500 41500
L92000 41000
" />
<path d="M93000 46000
L93000 43500
" />
<path d="M93000 43500
L92500 43000
" />
<path d="M82000 52500
L87500 52500
" />
<path d="M87500 52500
L88500 53500
" />
<path d="M88500 53500
L88500 56000
" />
<path d="M88500 59000
L88500 60500
" />
<path d="M78000 59500
L78000 46000
" />
<path d="M79500 61000
L78000 59500
" />
<path d="M81000 61000
L79500 61000
" />
<path d="M88000 61000
L84000 61000
" />
<path d="M88500 60500
L88000 61000
" />
<path d="M91000 46000
L82000 46000
" />
<path d="M91000 46000
L91000 43500
" />
<path d="M91000 43500
L91500 43000
" />
<path d="M92500 56000
L92500 53500
" />
<path d="M91000 48000
L91000 47000
" />
<path d="M90500 48500
L91000 48000
" />
<path d="M90500 53500
L90500 48500
" />
<path d="M82000 47000
L82000 49500
" />
<path d="M93000 47000
L98500 47000
" />
<path d="M82500 62000
L82500 59000
" />
<path d="M83500 63000
L82500 62000
" />
<path d="M97500 63000
L83500 63000
" />
<path d="M100000 60500
L97500 63000
" />
<path d="M100000 48500
L100000 60500
" />
<path d="M98500 47000
L100000 48500
" />
<path d="M93500 56000
L93500 50500
" />
<path d="M92000 44500
L92000 46000
" />
<path d="M95000 45500
L94000 44500
" />
<path d="M95000 49500
L95000 48500
" />
<path d="M93500 50500
L95000 49500
" />
<path d="M92000 47000
L92000 51500
" />
<path d="M91500 52000
L91500 56000
" />
<path d="M92000 51500
L91500 52000
" />
</g>
<g style="fill:#FFFFFF; fill-opacity:1.0; 
stroke:#FFFFFF; stroke-width:59.0551; stroke-opacity:1; 
stroke-linecap:round; stroke-linejoin:round;">
<circle cx="78000" cy="46000" r="127.953" /> 
<circle cx="81000" cy="61000" r="127.953" /> 
<circle cx="84000" cy="61000" r="127.953" /> 
<circle cx="82000" cy="46000" r="127.953" /> 
<circle cx="90500" cy="53500" r="127.953" /> 
<circle cx="92500" cy="53500" r="127.953" /> 
<circle cx="92000" cy="44500" r="127.953" /> 
<circle cx="94000" cy="44500" r="127.953" /> 
<circle cx="95000" cy="45500" r="127.953" /> 
<circle cx="95000" cy="48500" r="127.953" /> 
<circle cx="82000" cy="49500" r="127.953" /> 
<circle cx="82000" cy="52500" r="127.953" /> 
<circle cx="91000" cy="47000" r="127.953" /> 
<circle cx="91000" cy="46000" r="127.953" /> 
<circle cx="92000" cy="47000" r="127.953" /> 
<circle cx="92000" cy="46000" r="127.953" /> 
<circle cx="93000" cy="47000" r="127.953" /> 
<circle cx="93000" cy="46000" r="127.953" /> 
<circle cx="82000" cy="46000" r="127.953" /> 
<circle cx="82000" cy="47000" r="127.953" /> 
<circle cx="83500" cy="59000" r="127.953" /> 
<circle cx="84500" cy="59000" r="127.953" /> 
<circle cx="85500" cy="59000" r="127.953" /> 
<circle cx="86500" cy="59000" r="127.953" /> 
<circle cx="87500" cy="59000" r="127.953" /> 
<circle cx="88500" cy="59000" r="127.953" /> 
<circle cx="89500" cy="59000" r="127.953" /> 
<circle cx="90500" cy="59000" r="127.953" /> 
<circle cx="91500" cy="59000" r="127.953" /> 
<circle cx="92500" cy="59000" r="127.953" /> 
<circle cx="93500" cy="59000" r="127.953" /> 
<circle cx="94500" cy="59000" r="127.953" /> 
<circle cx="95500" cy="59000" r="127.953" /> 
<circle cx="82500" cy="59000" r="130.472" /> 
<circle cx="95500" cy="56000" r="127.953" /> 
<circle cx="94500" cy="56000" r="127.953" /> 
<circle cx="93500" cy="56000" r="127.953" /> 
<circle cx="92500" cy="56000" r="127.953" /> 
<circle cx="91500" cy="56000" r="127.953" /> 
<circle cx="90500" cy="56000" r="127.953" /> 
<circle cx="89500" cy="56000" r="127.953" /> 
<circle cx="88500" cy="56000" r="127.953" /> 
<circle cx="87500" cy="56000" r="127.953" /> 
<circle cx="86500" cy="56000" r="127.953" /> 
<circle cx="85500" cy="56000" r="127.953" /> 
<circle cx="84500" cy="56000" r="127.953" /> 
<circle cx="83500" cy="56000" r="127.953" /> 
<circle cx="82500" cy="56000" r="127.953" /> 
<circle cx="91500" cy="43000" r="127.953" /> 
<circle cx="92500" cy="43000" r="127.953" /> 
<circle cx="77000" cy="39000" r="570.472" /> 
<circle cx="103000" cy="39000" r="570.472" /> 
<circle cx="103000" cy="65500" r="570.472" /> 
<circle cx="77000" cy="65500" r="570.472" /> 
</g> 
</svg>
